<mxfile host="app.diagrams.net" modified="2023-08-16T17:03:22.242Z" agent="Mozilla/5.0 (Windows NT 10.0; Win64; x64) AppleWebKit/537.36 (KHTML, like Gecko) Chrome/114.0.0.0 Safari/537.36 OPR/100.0.0.0 (Edition std-1)" etag="7ln9nmKrEtYAUlkKMut2" version="21.3.8" type="github">
  <diagram name="Page-1" id="2YBvvXClWsGukQMizWep">
    <mxGraphModel dx="1199" dy="819" grid="1" gridSize="10" guides="1" tooltips="1" connect="1" arrows="1" fold="1" page="1" pageScale="1" pageWidth="850" pageHeight="1100" math="0" shadow="0">
      <root>
        <mxCell id="0" />
        <mxCell id="1" parent="0" />
        <mxCell id="enCV7RtinkrSNKV-X26U-27" value="" style="whiteSpace=wrap;html=1;aspect=fixed;fontSize=16;" vertex="1" parent="1">
          <mxGeometry x="245.63" y="245.63" width="338.75" height="338.75" as="geometry" />
        </mxCell>
        <mxCell id="enCV7RtinkrSNKV-X26U-1" value="&lt;font face=&quot;Times New Roman&quot; style=&quot;font-size: 11px;&quot;&gt;Arduino Mega&lt;/font&gt;" style="rounded=0;whiteSpace=wrap;html=1;fontSize=16;fillColor=#dae8fc;strokeColor=#6c8ebf;" vertex="1" parent="1">
          <mxGeometry x="330" y="400" width="170" height="30" as="geometry" />
        </mxCell>
        <mxCell id="enCV7RtinkrSNKV-X26U-3" value="&lt;font style=&quot;font-size: 11px;&quot;&gt;sensors (proximity, gyroscope, gas)&lt;/font&gt;" style="rounded=0;whiteSpace=wrap;html=1;fontSize=16;fillColor=#e1d5e7;strokeColor=#9673a6;" vertex="1" parent="1">
          <mxGeometry x="330" y="480" width="170" height="40" as="geometry" />
        </mxCell>
        <mxCell id="enCV7RtinkrSNKV-X26U-4" value="&lt;font style=&quot;font-size: 11px;&quot;&gt;power supply&lt;/font&gt;" style="rounded=0;whiteSpace=wrap;html=1;fontSize=16;fillColor=#f8cecc;strokeColor=#b85450;" vertex="1" parent="1">
          <mxGeometry x="330" y="440" width="170" height="30" as="geometry" />
        </mxCell>
        <mxCell id="enCV7RtinkrSNKV-X26U-5" value="&lt;font style=&quot;font-size: 11px;&quot;&gt;ca&lt;/font&gt;&lt;font size=&quot;1&quot; style=&quot;&quot;&gt;mera module&lt;/font&gt;" style="whiteSpace=wrap;html=1;aspect=fixed;fontSize=16;" vertex="1" parent="1">
          <mxGeometry x="330" y="300" width="80" height="80" as="geometry" />
        </mxCell>
        <mxCell id="enCV7RtinkrSNKV-X26U-6" value="&lt;font style=&quot;font-size: 11px;&quot;&gt;rf module&lt;/font&gt;" style="whiteSpace=wrap;html=1;aspect=fixed;fontSize=16;" vertex="1" parent="1">
          <mxGeometry x="420" y="300" width="80" height="80" as="geometry" />
        </mxCell>
        <mxCell id="enCV7RtinkrSNKV-X26U-8" value="" style="shape=flexArrow;endArrow=classic;html=1;rounded=0;fontSize=12;startSize=8;endSize=2.8049180327868855;curved=1;endWidth=10.620800859983877;width=7.213114754098361;entryX=0.75;entryY=0;entryDx=0;entryDy=0;" edge="1" parent="1" target="enCV7RtinkrSNKV-X26U-1">
          <mxGeometry width="50" height="50" relative="1" as="geometry">
            <mxPoint x="458" y="380" as="sourcePoint" />
            <mxPoint x="380" y="410" as="targetPoint" />
          </mxGeometry>
        </mxCell>
        <mxCell id="enCV7RtinkrSNKV-X26U-9" value="" style="shape=flexArrow;endArrow=classic;html=1;rounded=0;fontSize=12;startSize=8;endSize=8;curved=1;entryX=0.174;entryY=1.052;entryDx=0;entryDy=0;width=8.695652173913045;entryPerimeter=0;" edge="1" parent="1" target="enCV7RtinkrSNKV-X26U-1">
          <mxGeometry width="50" height="50" relative="1" as="geometry">
            <mxPoint x="360" y="480" as="sourcePoint" />
            <mxPoint x="470" y="420" as="targetPoint" />
          </mxGeometry>
        </mxCell>
        <mxCell id="enCV7RtinkrSNKV-X26U-10" value="" style="shape=flexArrow;endArrow=classic;html=1;rounded=0;fontSize=12;startSize=8;endSize=8;curved=1;exitX=0.25;exitY=0;exitDx=0;exitDy=0;entryX=0.25;entryY=1;entryDx=0;entryDy=0;" edge="1" parent="1">
          <mxGeometry width="50" height="50" relative="1" as="geometry">
            <mxPoint x="470" y="480" as="sourcePoint" />
            <mxPoint x="470" y="430" as="targetPoint" />
          </mxGeometry>
        </mxCell>
        <mxCell id="enCV7RtinkrSNKV-X26U-13" value="" style="shape=flexArrow;endArrow=classic;html=1;rounded=0;fontSize=12;startSize=8;endSize=1.771014492753623;curved=1;exitX=0.5;exitY=0;exitDx=0;exitDy=0;entryX=0.499;entryY=0.965;entryDx=0;entryDy=0;entryPerimeter=0;width=3.768115942028986;endWidth=5.590277777777778;" edge="1" parent="1" source="enCV7RtinkrSNKV-X26U-4" target="enCV7RtinkrSNKV-X26U-1">
          <mxGeometry width="50" height="50" relative="1" as="geometry">
            <mxPoint x="390" y="430" as="sourcePoint" />
            <mxPoint x="440" y="380" as="targetPoint" />
          </mxGeometry>
        </mxCell>
        <mxCell id="enCV7RtinkrSNKV-X26U-16" value="" style="endArrow=classic;html=1;rounded=0;fontSize=12;startSize=8;endSize=8;curved=1;exitX=1.003;exitY=0.4;exitDx=0;exitDy=0;exitPerimeter=0;entryX=1;entryY=0.5;entryDx=0;entryDy=0;" edge="1" parent="1" source="enCV7RtinkrSNKV-X26U-4" target="enCV7RtinkrSNKV-X26U-6">
          <mxGeometry width="50" height="50" relative="1" as="geometry">
            <mxPoint x="390" y="420" as="sourcePoint" />
            <mxPoint x="440" y="370" as="targetPoint" />
            <Array as="points">
              <mxPoint x="520" y="390" />
            </Array>
          </mxGeometry>
        </mxCell>
        <mxCell id="enCV7RtinkrSNKV-X26U-17" value="" style="endArrow=classic;html=1;rounded=0;fontSize=12;startSize=8;endSize=8;curved=1;exitX=1.003;exitY=0.4;exitDx=0;exitDy=0;exitPerimeter=0;entryX=1;entryY=0.5;entryDx=0;entryDy=0;" edge="1" parent="1">
          <mxGeometry width="50" height="50" relative="1" as="geometry">
            <mxPoint x="330" y="452" as="sourcePoint" />
            <mxPoint x="329" y="340" as="targetPoint" />
            <Array as="points">
              <mxPoint x="309" y="390" />
            </Array>
          </mxGeometry>
        </mxCell>
        <mxCell id="enCV7RtinkrSNKV-X26U-18" value="" style="shape=flexArrow;endArrow=classic;html=1;rounded=0;fontSize=12;startSize=8;endSize=1.771014492753623;curved=1;exitX=0.496;exitY=0.978;exitDx=0;exitDy=0;width=3.768115942028986;endWidth=5.590277777777778;exitPerimeter=0;" edge="1" parent="1" source="enCV7RtinkrSNKV-X26U-4" target="enCV7RtinkrSNKV-X26U-3">
          <mxGeometry width="50" height="50" relative="1" as="geometry">
            <mxPoint x="414.86" y="480" as="sourcePoint" />
            <mxPoint x="414.86" y="469" as="targetPoint" />
            <Array as="points" />
          </mxGeometry>
        </mxCell>
        <mxCell id="enCV7RtinkrSNKV-X26U-19" value="" style="shape=flexArrow;endArrow=classic;html=1;rounded=0;fontSize=12;startSize=8;endSize=1.5774647887323943;curved=1;exitX=1;exitY=0.5;exitDx=0;exitDy=0;width=5.915492957746479;endWidth=8.756199166831978;" edge="1" parent="1" source="enCV7RtinkrSNKV-X26U-5">
          <mxGeometry width="50" height="50" relative="1" as="geometry">
            <mxPoint x="440" y="390" as="sourcePoint" />
            <mxPoint x="420" y="340" as="targetPoint" />
          </mxGeometry>
        </mxCell>
        <mxCell id="enCV7RtinkrSNKV-X26U-20" value="servo motor driver" style="rounded=0;whiteSpace=wrap;html=1;fontSize=16;fillColor=#d80073;fontColor=#ffffff;strokeColor=#A50040;" vertex="1" parent="1">
          <mxGeometry x="260" y="300" width="50" height="220" as="geometry" />
        </mxCell>
        <mxCell id="enCV7RtinkrSNKV-X26U-21" value="servo motor driver" style="rounded=0;whiteSpace=wrap;html=1;fontSize=16;fillColor=#d80073;fontColor=#ffffff;strokeColor=#A50040;" vertex="1" parent="1">
          <mxGeometry x="520" y="300" width="50" height="220" as="geometry" />
        </mxCell>
        <mxCell id="enCV7RtinkrSNKV-X26U-22" value="" style="shape=flexArrow;endArrow=classic;html=1;rounded=0;fontSize=12;startSize=8;endSize=4.082352941176471;curved=1;exitX=0;exitY=0.5;exitDx=0;exitDy=0;width=5.882352941176471;endWidth=10.69204152249135;" edge="1" parent="1" source="enCV7RtinkrSNKV-X26U-4">
          <mxGeometry width="50" height="50" relative="1" as="geometry">
            <mxPoint x="260" y="480" as="sourcePoint" />
            <mxPoint x="310" y="455" as="targetPoint" />
          </mxGeometry>
        </mxCell>
        <mxCell id="enCV7RtinkrSNKV-X26U-23" value="" style="shape=flexArrow;endArrow=classic;html=1;rounded=0;fontSize=12;startSize=8;endSize=4.082352941176471;curved=1;width=5.882352941176471;endWidth=10.69204152249135;" edge="1" parent="1">
          <mxGeometry width="50" height="50" relative="1" as="geometry">
            <mxPoint x="500" y="460" as="sourcePoint" />
            <mxPoint x="520" y="460" as="targetPoint" />
          </mxGeometry>
        </mxCell>
        <mxCell id="enCV7RtinkrSNKV-X26U-24" value="" style="shape=flexArrow;endArrow=classic;startArrow=classic;html=1;rounded=0;fontSize=12;startSize=1.7442307692307693;endSize=1.7442307692307693;curved=1;width=8.076923076923077;endWidth=9.408284023668639;startWidth=9.408284023668639;entryX=0;entryY=0.5;entryDx=0;entryDy=0;exitX=0.999;exitY=0.528;exitDx=0;exitDy=0;exitPerimeter=0;" edge="1" parent="1" source="enCV7RtinkrSNKV-X26U-20" target="enCV7RtinkrSNKV-X26U-1">
          <mxGeometry width="100" height="100" relative="1" as="geometry">
            <mxPoint x="280" y="450" as="sourcePoint" />
            <mxPoint x="330" y="410" as="targetPoint" />
            <Array as="points" />
          </mxGeometry>
        </mxCell>
        <mxCell id="enCV7RtinkrSNKV-X26U-25" value="" style="shape=flexArrow;endArrow=classic;startArrow=classic;html=1;rounded=0;fontSize=12;startSize=1.7442307692307693;endSize=1.7442307692307693;curved=1;width=8.076923076923077;endWidth=9.408284023668639;startWidth=9.408284023668639;entryX=0.013;entryY=0.524;entryDx=0;entryDy=0;exitX=0.999;exitY=0.528;exitDx=0;exitDy=0;exitPerimeter=0;entryPerimeter=0;" edge="1" parent="1" target="enCV7RtinkrSNKV-X26U-21">
          <mxGeometry width="100" height="100" relative="1" as="geometry">
            <mxPoint x="500" y="415.5" as="sourcePoint" />
            <mxPoint x="520" y="414.5" as="targetPoint" />
            <Array as="points" />
          </mxGeometry>
        </mxCell>
        <mxCell id="enCV7RtinkrSNKV-X26U-29" value="" style="whiteSpace=wrap;html=1;aspect=fixed;fontSize=16;fillColor=#60a917;fontColor=#ffffff;strokeColor=#2D7600;" vertex="1" parent="1">
          <mxGeometry x="20" y="65.63" width="80" height="80" as="geometry" />
        </mxCell>
        <mxCell id="enCV7RtinkrSNKV-X26U-35" value="" style="whiteSpace=wrap;html=1;aspect=fixed;fontSize=16;" vertex="1" parent="1">
          <mxGeometry x="20" y="65.63" width="180" height="180" as="geometry" />
        </mxCell>
        <mxCell id="enCV7RtinkrSNKV-X26U-36" value="" style="whiteSpace=wrap;html=1;aspect=fixed;fontSize=16;" vertex="1" parent="1">
          <mxGeometry x="20" y="320" width="180" height="180" as="geometry" />
        </mxCell>
        <mxCell id="enCV7RtinkrSNKV-X26U-37" value="" style="whiteSpace=wrap;html=1;aspect=fixed;fontSize=16;" vertex="1" parent="1">
          <mxGeometry x="20" y="584.38" width="180" height="180" as="geometry" />
        </mxCell>
        <mxCell id="enCV7RtinkrSNKV-X26U-38" value="" style="whiteSpace=wrap;html=1;aspect=fixed;fontSize=16;" vertex="1" parent="1">
          <mxGeometry x="620" y="340" width="180" height="180" as="geometry" />
        </mxCell>
        <mxCell id="enCV7RtinkrSNKV-X26U-39" value="" style="whiteSpace=wrap;html=1;aspect=fixed;fontSize=16;" vertex="1" parent="1">
          <mxGeometry x="610" y="65.63" width="180" height="180" as="geometry" />
        </mxCell>
        <mxCell id="enCV7RtinkrSNKV-X26U-40" value="" style="whiteSpace=wrap;html=1;aspect=fixed;fontSize=16;" vertex="1" parent="1">
          <mxGeometry x="620" y="584.38" width="180" height="180" as="geometry" />
        </mxCell>
        <mxCell id="enCV7RtinkrSNKV-X26U-44" value="servo motor" style="rounded=0;whiteSpace=wrap;html=1;fontSize=16;fillColor=#1ba1e2;fontColor=#ffffff;strokeColor=#006EAF;" vertex="1" parent="1">
          <mxGeometry x="20" y="65.63" width="180" height="60" as="geometry" />
        </mxCell>
        <mxCell id="enCV7RtinkrSNKV-X26U-45" value="servo motor" style="rounded=0;whiteSpace=wrap;html=1;fontSize=16;fillColor=#60a917;fontColor=#ffffff;strokeColor=#2D7600;" vertex="1" parent="1">
          <mxGeometry x="20" y="125.63" width="180" height="60" as="geometry" />
        </mxCell>
        <mxCell id="enCV7RtinkrSNKV-X26U-46" value="servo motor" style="rounded=0;whiteSpace=wrap;html=1;fontSize=16;fillColor=#a20025;fontColor=#ffffff;strokeColor=#6F0000;" vertex="1" parent="1">
          <mxGeometry x="20" y="185.63" width="180" height="60" as="geometry" />
        </mxCell>
        <mxCell id="enCV7RtinkrSNKV-X26U-47" value="servo motor" style="rounded=0;whiteSpace=wrap;html=1;fontSize=16;fillColor=#1ba1e2;fontColor=#ffffff;strokeColor=#006EAF;" vertex="1" parent="1">
          <mxGeometry x="20" y="320" width="180" height="60" as="geometry" />
        </mxCell>
        <mxCell id="enCV7RtinkrSNKV-X26U-48" value="servo motor" style="rounded=0;whiteSpace=wrap;html=1;fontSize=16;fillColor=#60a917;fontColor=#ffffff;strokeColor=#2D7600;" vertex="1" parent="1">
          <mxGeometry x="20" y="380" width="180" height="60" as="geometry" />
        </mxCell>
        <mxCell id="enCV7RtinkrSNKV-X26U-49" value="servo motor" style="rounded=0;whiteSpace=wrap;html=1;fontSize=16;fillColor=#a20025;fontColor=#ffffff;strokeColor=#6F0000;" vertex="1" parent="1">
          <mxGeometry x="20" y="440" width="180" height="60" as="geometry" />
        </mxCell>
        <mxCell id="enCV7RtinkrSNKV-X26U-50" value="" style="rounded=0;whiteSpace=wrap;html=1;fontSize=16;fillColor=#1ba1e2;fontColor=#ffffff;strokeColor=#006EAF;" vertex="1" parent="1">
          <mxGeometry x="610" y="65.63" width="180" height="60" as="geometry" />
        </mxCell>
        <mxCell id="enCV7RtinkrSNKV-X26U-51" value="" style="rounded=0;whiteSpace=wrap;html=1;fontSize=16;fillColor=#60a917;fontColor=#ffffff;strokeColor=#2D7600;" vertex="1" parent="1">
          <mxGeometry x="610" y="125.63" width="180" height="60" as="geometry" />
        </mxCell>
        <mxCell id="enCV7RtinkrSNKV-X26U-52" value="" style="rounded=0;whiteSpace=wrap;html=1;fontSize=16;fillColor=#a20025;fontColor=#ffffff;strokeColor=#6F0000;" vertex="1" parent="1">
          <mxGeometry x="610" y="185.63" width="180" height="60" as="geometry" />
        </mxCell>
        <mxCell id="enCV7RtinkrSNKV-X26U-53" value="servo motor" style="rounded=0;whiteSpace=wrap;html=1;fontSize=16;fillColor=#1ba1e2;fontColor=#ffffff;strokeColor=#006EAF;" vertex="1" parent="1">
          <mxGeometry x="20" y="584.38" width="180" height="60" as="geometry" />
        </mxCell>
        <mxCell id="enCV7RtinkrSNKV-X26U-54" value="servo motor" style="rounded=0;whiteSpace=wrap;html=1;fontSize=16;fillColor=#60a917;fontColor=#ffffff;strokeColor=#2D7600;" vertex="1" parent="1">
          <mxGeometry x="20" y="644.38" width="180" height="60" as="geometry" />
        </mxCell>
        <mxCell id="enCV7RtinkrSNKV-X26U-55" value="servo motor" style="rounded=0;whiteSpace=wrap;html=1;fontSize=16;fillColor=#a20025;fontColor=#ffffff;strokeColor=#6F0000;" vertex="1" parent="1">
          <mxGeometry x="20" y="704.38" width="180" height="60" as="geometry" />
        </mxCell>
        <mxCell id="enCV7RtinkrSNKV-X26U-56" value="" style="rounded=0;whiteSpace=wrap;html=1;fontSize=16;fillColor=#1ba1e2;fontColor=#ffffff;strokeColor=#006EAF;" vertex="1" parent="1">
          <mxGeometry x="620" y="340" width="180" height="60" as="geometry" />
        </mxCell>
        <mxCell id="enCV7RtinkrSNKV-X26U-57" value="" style="rounded=0;whiteSpace=wrap;html=1;fontSize=16;fillColor=#60a917;fontColor=#ffffff;strokeColor=#2D7600;" vertex="1" parent="1">
          <mxGeometry x="620" y="400" width="180" height="60" as="geometry" />
        </mxCell>
        <mxCell id="enCV7RtinkrSNKV-X26U-58" value="" style="rounded=0;whiteSpace=wrap;html=1;fontSize=16;fillColor=#a20025;fontColor=#ffffff;strokeColor=#6F0000;" vertex="1" parent="1">
          <mxGeometry x="620" y="460" width="180" height="60" as="geometry" />
        </mxCell>
        <mxCell id="enCV7RtinkrSNKV-X26U-59" value="servo motor" style="rounded=0;whiteSpace=wrap;html=1;fontSize=16;fillColor=#1ba1e2;fontColor=#ffffff;strokeColor=#006EAF;" vertex="1" parent="1">
          <mxGeometry x="620" y="584.38" width="180" height="60" as="geometry" />
        </mxCell>
        <mxCell id="enCV7RtinkrSNKV-X26U-60" value="" style="rounded=0;whiteSpace=wrap;html=1;fontSize=16;fillColor=#60a917;fontColor=#ffffff;strokeColor=#2D7600;" vertex="1" parent="1">
          <mxGeometry x="620" y="644.38" width="180" height="60" as="geometry" />
        </mxCell>
        <mxCell id="enCV7RtinkrSNKV-X26U-61" value="servo motor" style="rounded=0;whiteSpace=wrap;html=1;fontSize=16;fillColor=#a20025;fontColor=#ffffff;strokeColor=#6F0000;" vertex="1" parent="1">
          <mxGeometry x="620" y="704.38" width="180" height="60" as="geometry" />
        </mxCell>
        <mxCell id="enCV7RtinkrSNKV-X26U-62" value="" style="endArrow=classic;html=1;rounded=0;fontSize=12;startSize=8;endSize=8;curved=1;exitX=0;exitY=0;exitDx=0;exitDy=0;entryX=1;entryY=0.5;entryDx=0;entryDy=0;" edge="1" parent="1" source="enCV7RtinkrSNKV-X26U-20" target="enCV7RtinkrSNKV-X26U-44">
          <mxGeometry width="50" height="50" relative="1" as="geometry">
            <mxPoint x="470" y="540" as="sourcePoint" />
            <mxPoint x="520" y="490" as="targetPoint" />
            <Array as="points" />
          </mxGeometry>
        </mxCell>
        <mxCell id="enCV7RtinkrSNKV-X26U-64" value="" style="endArrow=classic;html=1;rounded=0;fontSize=12;startSize=8;endSize=8;curved=1;entryX=1;entryY=0.5;entryDx=0;entryDy=0;exitX=0;exitY=0;exitDx=0;exitDy=0;" edge="1" parent="1" source="enCV7RtinkrSNKV-X26U-20">
          <mxGeometry width="50" height="50" relative="1" as="geometry">
            <mxPoint x="260" y="310" as="sourcePoint" />
            <mxPoint x="200" y="150" as="targetPoint" />
            <Array as="points" />
          </mxGeometry>
        </mxCell>
        <mxCell id="enCV7RtinkrSNKV-X26U-65" style="edgeStyle=none;curved=1;rounded=0;orthogonalLoop=1;jettySize=auto;html=1;entryX=0;entryY=0;entryDx=0;entryDy=0;fontSize=12;startSize=8;endSize=8;" edge="1" parent="1" target="enCV7RtinkrSNKV-X26U-20">
          <mxGeometry relative="1" as="geometry">
            <mxPoint x="260" y="300" as="sourcePoint" />
          </mxGeometry>
        </mxCell>
        <mxCell id="enCV7RtinkrSNKV-X26U-66" style="edgeStyle=none;curved=1;rounded=0;orthogonalLoop=1;jettySize=auto;html=1;exitX=0;exitY=0;exitDx=0;exitDy=0;entryX=1;entryY=0.5;entryDx=0;entryDy=0;fontSize=12;startSize=8;endSize=8;" edge="1" parent="1" source="enCV7RtinkrSNKV-X26U-20" target="enCV7RtinkrSNKV-X26U-46">
          <mxGeometry relative="1" as="geometry" />
        </mxCell>
        <mxCell id="enCV7RtinkrSNKV-X26U-67" value="" style="rounded=0;whiteSpace=wrap;html=1;fontSize=16;fillColor=#1ba1e2;fontColor=#ffffff;strokeColor=#006EAF;" vertex="1" parent="1">
          <mxGeometry x="610" y="65.63" width="180" height="60" as="geometry" />
        </mxCell>
        <mxCell id="enCV7RtinkrSNKV-X26U-68" value="" style="rounded=0;whiteSpace=wrap;html=1;fontSize=16;fillColor=#60a917;fontColor=#ffffff;strokeColor=#2D7600;" vertex="1" parent="1">
          <mxGeometry x="610" y="125.63" width="180" height="60" as="geometry" />
        </mxCell>
        <mxCell id="enCV7RtinkrSNKV-X26U-69" value="" style="rounded=0;whiteSpace=wrap;html=1;fontSize=16;fillColor=#a20025;fontColor=#ffffff;strokeColor=#6F0000;" vertex="1" parent="1">
          <mxGeometry x="610" y="185.63" width="180" height="60" as="geometry" />
        </mxCell>
        <mxCell id="enCV7RtinkrSNKV-X26U-70" value="" style="rounded=0;whiteSpace=wrap;html=1;fontSize=16;fillColor=#1ba1e2;fontColor=#ffffff;strokeColor=#006EAF;" vertex="1" parent="1">
          <mxGeometry x="620" y="340" width="180" height="60" as="geometry" />
        </mxCell>
        <mxCell id="enCV7RtinkrSNKV-X26U-71" value="" style="rounded=0;whiteSpace=wrap;html=1;fontSize=16;fillColor=#60a917;fontColor=#ffffff;strokeColor=#2D7600;" vertex="1" parent="1">
          <mxGeometry x="620" y="400" width="180" height="60" as="geometry" />
        </mxCell>
        <mxCell id="enCV7RtinkrSNKV-X26U-72" value="" style="rounded=0;whiteSpace=wrap;html=1;fontSize=16;fillColor=#a20025;fontColor=#ffffff;strokeColor=#6F0000;" vertex="1" parent="1">
          <mxGeometry x="620" y="460" width="180" height="60" as="geometry" />
        </mxCell>
        <mxCell id="enCV7RtinkrSNKV-X26U-73" value="servo motor" style="rounded=0;whiteSpace=wrap;html=1;fontSize=16;fillColor=#1ba1e2;fontColor=#ffffff;strokeColor=#006EAF;" vertex="1" parent="1">
          <mxGeometry x="605" y="65.63" width="180" height="60" as="geometry" />
        </mxCell>
        <mxCell id="enCV7RtinkrSNKV-X26U-74" value="servo motor" style="rounded=0;whiteSpace=wrap;html=1;fontSize=16;fillColor=#60a917;fontColor=#ffffff;strokeColor=#2D7600;" vertex="1" parent="1">
          <mxGeometry x="605" y="125.63" width="180" height="60" as="geometry" />
        </mxCell>
        <mxCell id="enCV7RtinkrSNKV-X26U-75" value="servo motor" style="rounded=0;whiteSpace=wrap;html=1;fontSize=16;fillColor=#a20025;fontColor=#ffffff;strokeColor=#6F0000;" vertex="1" parent="1">
          <mxGeometry x="605" y="185.63" width="180" height="60" as="geometry" />
        </mxCell>
        <mxCell id="enCV7RtinkrSNKV-X26U-76" value="servo motor" style="rounded=0;whiteSpace=wrap;html=1;fontSize=16;fillColor=#1ba1e2;fontColor=#ffffff;strokeColor=#006EAF;" vertex="1" parent="1">
          <mxGeometry x="615" y="340" width="180" height="60" as="geometry" />
        </mxCell>
        <mxCell id="enCV7RtinkrSNKV-X26U-77" value="servo motor" style="rounded=0;whiteSpace=wrap;html=1;fontSize=16;fillColor=#60a917;fontColor=#ffffff;strokeColor=#2D7600;" vertex="1" parent="1">
          <mxGeometry x="615" y="400" width="180" height="60" as="geometry" />
        </mxCell>
        <mxCell id="enCV7RtinkrSNKV-X26U-78" value="servo motor" style="rounded=0;whiteSpace=wrap;html=1;fontSize=16;fillColor=#a20025;fontColor=#ffffff;strokeColor=#6F0000;" vertex="1" parent="1">
          <mxGeometry x="615" y="460" width="180" height="60" as="geometry" />
        </mxCell>
        <mxCell id="enCV7RtinkrSNKV-X26U-79" value="servo motor" style="rounded=0;whiteSpace=wrap;html=1;fontSize=16;fillColor=#60a917;fontColor=#ffffff;strokeColor=#2D7600;" vertex="1" parent="1">
          <mxGeometry x="620" y="644.38" width="180" height="60" as="geometry" />
        </mxCell>
      </root>
    </mxGraphModel>
  </diagram>
</mxfile>
